<svg version="1.1" id="Layer_1" xmlns="http://www.w3.org/2000/svg" x="0" y="0" viewBox="0 0 354.3 136.4" xml:space="preserve"><style>.st0{fill:#fff}</style><path class="st0" d="M27.2 116h-6.5v20h-4.4v-20H9.5v-3.6h18.7l-1 3.6zM37.4 123c-.7-.4-1.5-.5-2-.5-1 0-2.1.5-3.3 1.5v12h-4.3v-17h3.6l.5 1.8c1.7-1.5 3.1-2.2 4.7-2.2.8 0 1.7.3 2.4.7l-1.6 3.7zM50.5 136l-.7-1.5c-1.1 1-2.7 1.9-4.9 1.9-3.1 0-5.6-2.1-5.6-5.5 0-3.5 2.8-5.4 7.1-5.6l3-.1v-.4c0-2-1.5-2.9-3.3-2.9-1.8 0-3.3.6-4.4 1.3l-1.4-2.7c2.3-1.5 4.4-1.9 6.6-1.9 4.2 0 6.7 1.7 6.7 6.2v6.7c0 2.4.1 3.7.3 4.5h-3.4zm-1-7.8l-2.4.1c-2.3.1-3.4.9-3.4 2.3s1 2.4 2.8 2.4c1.5 0 2.5-.6 3.1-1.1v-3.7zM65.5 136.1h-3.1l-7-17.1h4.4l4.2 11.6h.1l4.3-11.6h4.2l-7.1 17.1zM77.8 128.6c.1 2.5 2.2 4.3 4.8 4.3 1.6 0 2.9-.4 4.4-1.2l1 2.8c-1.9 1.3-4.2 1.9-6.2 1.9-5.9 0-8.4-4.3-8.4-8.9 0-4.8 2.9-8.9 7.7-8.9 4.6 0 7.6 3.5 7.6 8.8v1.3H77.8zm3.2-6.7c-2.1 0-3.3 1.9-3.3 3.7h6.6c-.1-1.8-1.1-3.7-3.3-3.7zM95.9 136.4c-2.8 0-3.9-1.6-3.9-3.7v-22.1h4.3v20.1c0 1.3.3 1.8 1.1 1.8.3 0 .6 0 1.3-.2l.5 3.2c-1.2.7-2.3.9-3.3.9zM128.8 136.1h-3.3l-3.8-11.6h-.1l-3.8 11.6h-3.3l-6.2-17.1h4.4l3.6 11.5h.1l3.7-11.5h3.3l3.8 11.5h.1L131 119h4.1l-6.3 17.1zM139.9 116.4c-1.5 0-2.7-1.1-2.7-2.6 0-1.4 1.1-2.6 2.7-2.6 1.5 0 2.7 1.1 2.7 2.6-.1 1.4-1.2 2.6-2.7 2.6zm-2.2 19.6v-17h4.3v17h-4.3zM152.3 136.4c-3 0-4.2-1.7-4.2-4v-10.1h-3V119h3v-3.9l4.3-1.3v5.2h5.3l-1.3 3.2h-4v8.5c0 1.3.5 1.9 1.6 1.9s2.2-.5 2.8-.9l1.1 2.7c-1.7 1.4-4 2-5.6 2zM171.4 136v-9.9c0-1.9-.3-3.7-2.6-3.7-1.5 0-3 .8-4.1 1.8V136h-4.3v-25.4h4.3v10.3c1.6-1.3 3.4-2.2 5.6-2.2 2.6 0 5.4 1.3 5.4 6.2V136h-4.3zM195.8 136.4c-5.5 0-8.4-4-8.4-8.8 0-5.2 3.7-9 8.8-9 2.3 0 3.9.6 4.8 1.2l-.1 3.5c-1.2-.9-2.5-1.4-4.3-1.4-2.9 0-5 2.3-5 5.5 0 2.9 1.6 5.5 5 5.5 1.6 0 2.8-.5 4-1.2l1.1 2.8c-1.3 1-3.6 1.9-5.9 1.9zM218 133.9c-1.5 1.5-3.6 2.4-6.1 2.4-2.4 0-4.4-.8-5.9-2.1-1.7-1.6-2.6-3.9-2.6-6.6 0-2.7.9-5 2.5-6.6 1.5-1.5 3.6-2.4 6-2.4 2.6 0 4.7.9 6.2 2.4 1.5 1.6 2.3 3.8 2.3 6.4s-.8 4.9-2.4 6.5zm-6.1-11.9c-2.7 0-4.1 2.3-4.1 5.5 0 3.3 1.5 5.5 4.2 5.5s4.1-2.3 4.1-5.5c-.1-3.3-1.6-5.5-4.2-5.5zM234.9 136v-10c0-1.8-.3-3.7-2.5-3.7-1.5 0-3 .8-4.3 1.8V136h-4.3v-17h3.7l.5 1.8c1.8-1.4 3.7-2.2 6-2.2 2.6 0 5.4 1.5 5.4 6.1V136h-4.5zM252.9 114.5c-.7-.3-1.4-.5-2.2-.5-1.4 0-2 .8-2 2.3v2.7h4.5l-1.1 3.3h-3.4V136h-4.3v-13.7H242V119h2.5v-2.4c0-5 3.6-6.1 6-6.1.9 0 2.2.2 3.3.8l-.9 3.2zM258.3 116.4c-1.5 0-2.7-1.1-2.7-2.6 0-1.4 1.1-2.6 2.7-2.6 1.5 0 2.7 1.1 2.7 2.6 0 1.4-1.2 2.6-2.7 2.6zm-2.1 19.6v-17h4.3v17h-4.3zM273.5 136.4c-5.1 0-9.2-3-9.2-8.7 0-5.3 3.9-9 9.4-9 .9 0 1.5 0 2.2.1v-8.2h4.3V135c-1.7.8-3.8 1.4-6.7 1.4zm2.3-14.1c-.6-.1-1.1-.3-2-.3-3.1 0-5.2 2-5.2 5.4 0 3.1 2 5.4 5.3 5.4.7 0 1.4-.1 1.9-.3v-10.2zM287.7 128.6c.1 2.5 2.2 4.3 4.8 4.3 1.6 0 2.9-.4 4.4-1.2l1 2.8c-1.9 1.3-4.2 1.9-6.2 1.9-5.9 0-8.4-4.3-8.4-8.9 0-4.8 2.9-8.9 7.7-8.9 4.6 0 7.6 3.5 7.6 8.8v1.3h-10.9zm3.2-6.7c-2.1 0-3.3 1.9-3.3 3.7h6.6c-.1-1.8-1.1-3.7-3.3-3.7zM313 136v-10c0-1.8-.3-3.7-2.5-3.7-1.5 0-3 .8-4.3 1.8V136h-4.3v-17h3.7l.5 1.8c1.8-1.4 3.7-2.2 6-2.2 2.6 0 5.4 1.5 5.4 6.1V136H313zM328.8 136.4c-5.5 0-8.4-4-8.4-8.8 0-5.2 3.7-9 8.8-9 2.3 0 3.9.6 4.8 1.2l-.1 3.5c-1.2-.9-2.5-1.4-4.3-1.4-2.9 0-5 2.3-5 5.5 0 2.9 1.6 5.5 5 5.5 1.6 0 2.8-.5 4-1.2l1.1 2.8c-1.2 1-3.5 1.9-5.9 1.9zM340.9 128.6c.1 2.5 2.2 4.3 4.8 4.3 1.6 0 2.9-.4 4.4-1.2l1 2.8c-1.9 1.3-4.2 1.9-6.2 1.9-5.9 0-8.4-4.3-8.4-8.9 0-4.8 2.9-8.9 7.7-8.9 4.6 0 7.6 3.5 7.6 8.8v1.3h-10.9zm3.2-6.7c-2.1 0-3.3 1.9-3.3 3.7h6.6c-.1-1.8-1.1-3.7-3.3-3.7z"/><g><path class="st0" d="M203.7 90.7h-25.3V10.8h25c16.1 0 23.5 11 23.5 20.7 0 7.6-3.2 12.7-9.6 16.6v.2c9.2 2.1 14.8 8.5 14.8 18.2-.1 11.5-8.3 24.2-28.4 24.2zm-2.5-67.5H193V44h7.7c6.6 0 11.4-4.2 11.4-10.9 0-5.6-3.8-9.9-10.9-9.9zm2.8 33.1h-11v22.1h9.3c9.8 0 14.6-4.4 14.6-11.6.1-6.3-4.6-10.5-12.9-10.5zM290.8 23.1h-21.3v67.6h-14.8V23.1h-23.1V10.8h63.9l-4.7 12.3zM156 90.7l-7.9-20h-28.5l-7.4 20H97.6l30.9-79.8h11l32 79.8H156zm-18.9-50.4c-1.5-4-2.4-7.3-3-9.9h-.1c-.5 2.8-1.6 5.9-2.9 9.7l-6.9 18.6h19.4l-6.5-18.4zM338.9 90.7l-7.9-20h-28.5l-7.4 20h-14.7l30.9-79.8h11l32 79.8h-15.4zM320 40.3c-1.5-4-2.4-7.3-3-9.9h-.1c-.5 2.8-1.6 5.9-2.9 9.7l-7 18.6h19.4L320 40.3z"/><g><path class="st0" d="M48.3 0c-1.5 0-3 .1-4.5.2v96c1.5.1 3 .2 4.5.2 26.6 0 48.2-21.6 48.2-48.3C96.5 21.6 74.9 0 48.3 0zm17.6 52.6c-.2 3.1-.6 6.1-1.2 9H53.4v-9h12.5zm-12.5-9v-9h11.2c.6 2.9 1 5.9 1.2 9H53.4zm22 9h11.3c-.4 3.1-1.1 6.1-2.1 9H74.2c.6-2.9 1-5.9 1.2-9zm0-9c-.2-3.1-.6-6.1-1.3-9h10.4c1.1 2.9 1.8 5.9 2.2 9H75.4zm4.2-18h-8.1c-1.6-4.4-3.7-8.4-6.1-12.1 5.6 2.8 10.5 7 14.2 12.1zm-17.6 0h-8.7V9.9c3.7 4.6 6.6 9.9 8.7 15.7zm-8.6 61V70.7h8.7C60 76.6 57 81.9 53.4 86.6zm12-3.7c2.5-3.7 4.5-7.8 6.2-12.3h8.2c-3.7 5.2-8.6 9.5-14.4 12.3zM39.2 39.1v-3.7l-23.1-23c-1.3 1.2-2.5 2.4-3.7 3.6l23.1 23.1h3.7zM39.2 57.1v3.7l-23.1 23c-1.3-1.2-2.5-2.4-3.7-3.7L35.5 57h3.7zM39.2 43.7H.2c-.1 1.5-.2 3-.2 4.5s.1 3 .2 4.5h39v-9zM9.9 19.1c-4.4 5.8-7.5 12.6-8.9 20h29l-20.1-20zM39.2 29.9V.9c-7.4 1.4-14.2 4.5-20 8.9l20 20.1zM19.1 86.4c5.8 4.4 12.6 7.5 20 8.9v-29l-20 20.1zM29.9 57.1H1c1.4 7.4 4.5 14.3 8.9 20.1l20-20.1z"/></g></g></svg>