<svg version="1.1" id="Layer_1" xmlns="http://www.w3.org/2000/svg" x="0" y="0" viewBox="0 0 469.4 469.4" xml:space="preserve"><style>.st0{fill:#1d1d1b}.st1{fill:#fff}</style><path class="st1" d="M200.4 84.9L163 78.3l-41.9 237.4 190.4 33.5 12.6-70.9s-61.5 7.5-106.5-39.5S172.2 136 200.4 84.9"/><path class="st1" d="M326.1 267s-53.9-.7-80.7-54c-37-73.7 40-113.3 40-113.3l68.4 12.1L326.1 267zM150.6 292.6l-10-1.8 20.3-20 10.7 1.9 12 25.8-10.3-1.9-2.1-5.2-17.1-3 3.2-3.6 12 2.2-4.1-10zM189.6 275.9l36.8 6.5-.7 4.1-13.6-2.4-3.3 18.8-9.6-1.7 3.4-18.8-13.7-2.5zM266.5 291.6c-3.1-2.4-7.9-4.2-14.4-5.3-6.5-1.2-11.6-1.2-15.4 0-5 1.3-7.8 4-8.6 8.2-.7 4.1 1 7.7 5.2 10.7 3.1 2.4 7.9 4.1 14.4 5.3 6.5 1.2 11.6 1.2 15.4 0 5-1.4 7.8-4.1 8.6-8.2.8-4.2-1-7.8-5.2-10.7m-26.6 11.2c-2-1.8-2.8-4-2.3-6.6.4-2.5 2-4.3 4.5-5.3 2.4-1 5.5-1.2 9.3-.5 3.8.7 6.6 1.9 8.6 3.7 1.9 1.8 2.6 4 2.2 6.6-.4 2.6-1.9 4.4-4.3 5.4-2.5 1-5.6 1.2-9.4.5-3.7-.8-6.6-2-8.6-3.8M276.9 315l4.1-22.9 9.5 1.7-3.4 18.8 22.5 4-.7 4.1z"/><path class="st1" d="M196.60000000000002 450.9C77.4 429.9-2.5 315.8 18.5 196.6 39.5 77.4 153.6-2.5 272.8 18.5 392 39.6 471.9 153.6 450.9 272.8c-21 119.2-135.1 199.1-254.3 178.1M3.6 194c-22.5 127.4 62.9 249.4 190.3 271.8 127.5 22.5 249.4-62.9 271.9-190.4 2.4-13.7 3.6-27.4 3.6-40.9 0-111.7-80.2-210.9-193.9-231C148-18.8 26.1 66.5 3.6 194"/><path class="st1" d="M58.1 278.5c.5 1.5 1 3.1 1.8 4.5 2.4 4.2 6.9 4.8 11.1 3.6 5.5-1.5 8.4-5.4 7.5-9l-1.2-4.3-19.2 5.2zm-24.7 6.8c-.3-1.8-.6-3.6-1.1-5.3-.4-1.8-1.1-3.4-1.8-5.1l47.7-13 4.7 17.1c2.7 9.6.2 15.9-7.7 18.1-12.4 3.4-17.5-4.9-20.9-17.4l-20.9 5.6zM75.4 321.4c3.2 6.9 8.3 8.3 14.6 4.5.8-.5 1.8-1.1 2.9-2.1 4.6-4 1.3-8.4-.9-12.2l-16.6 9.8zM90 300.3l7.8 13.2c1.7 2.9 4.5 7.4 4.7 10.8.2 4.6-1.5 8.1-5.7 10.6-6.1 3.6-12.2 1.9-16.9-3.1-4 6.9-7.4 14.1-11 21.3l-2.4 4.7c-1-1.9-1.8-3.9-2.9-5.8-1.1-1.9-2.4-3.6-3.6-5.4l8.7-15.1c1.1-1.9 3-5.3 4.5-8.1l-.2-.4-20 11.7c-.7-1.6-1.5-3.3-2.4-4.8-.9-1.6-2-3-3-4.5L90 300.3zM101.4 363.7c-6.2 7-9.5 17.3-1.4 24.4 8.3 7.3 19.4 2.2 27.3-6.8 6.1-7 9.9-17.8 1.8-24.9-7.5-6.6-17-4.9-27.7 7.3m-4.5 27.4c-12-10.5-13.9-24.6-3.1-36.9 9.4-10.8 24.9-12.7 38.4-.8 15.5 13.5 10.5 28.4 3.1 36.9-9.1 10.5-25.1 12.4-38.4.8M157.3 427.3c-1.6-.8-3.1-1.8-4.8-2.5-1.7-.7-3.4-1.2-5.1-1.8l17.6-40.7c-4.7-2-9-3.4-12.7-4.4.5-.9 1.1-1.7 1.5-2.7.5-.9.6-2 .9-2.9l34 14.7c-.5.9-1.1 1.7-1.5 2.6-.4 1-.6 2-.8 3-3.7-2.1-7.4-4.3-11.4-6l-17.7 40.7zM223.2 393.1c-.3.9-.8 1.9-.9 2.9-.2 1-.1 2.1-.2 3.1-4.2-1.3-9-2.7-16.2-3.8l-2.6 15.3 7.4 1.2c3.2.6 6.2.8 8.9.8-.3 1-.7 2-.9 3-.2 1-.1 2.1-.2 3.1-2.6-.8-5.4-1.6-8.6-2.1l-7.4-1.3-3.1 18c7.3 1.2 12.2 1.6 16.6 1.8-.3 1-.8 2-.9 3-.2 1-.2 2.1-.2 3.1l-27.1-4.6 8.2-48.3 27.2 4.8zM274.7 430.9l-1 6.3c-4.1 2.6-9.1 4-13.9 4.4-15.3 1.5-27.9-6.8-29.3-21.5-1.8-18.7 10.3-28.5 25.9-30 4.7-.5 10.6.2 14.9 2.1-.4 2.5-.6 5-.9 7.5l-1.1.1c-3-3.6-7.9-5.9-12.5-5.4-11.9 1.2-15.6 13-14.5 23.5 1.2 12.3 8 20.3 19.1 19.2 4.4-.4 9.4-3.2 12.3-6.6l1 .4zM315.6 425.9c-1.7.5-3.6 1-5.2 1.6-1.7.7-3.3 1.5-4.9 2.3l-16.2-41.3c-4.7 1.9-8.8 4-12.1 5.8-.2-1-.4-2-.8-3-.3-.9-.9-1.8-1.4-2.6l34.6-13.6c.2 1 .4 2 .8 2.9.4 1 1 1.9 1.5 2.8-4.1 1.1-8.2 2.2-12.4 3.8l16.1 41.3zM338.1 355.2c.4.9.9 1.9 1.5 2.8.6.8 1.4 1.6 2.1 2.3-4 2.1-8.3 4.4-14.2 8.8l8.9 12.6 6.2-4.3c2.7-1.9 4.9-3.8 6.8-5.6.5.9.9 1.9 1.5 2.7.6.8 1.4 1.6 2.1 2.3-2.4 1.3-5 2.7-7.6 4.6l-6.2 4.3 10.6 14.9c6-4.3 9.8-7.4 13.1-10.4.4.9.9 1.9 1.5 2.8.6.8 1.3 1.6 2 2.3L344 411.1 315.7 371l22.4-15.8zM387.1 369.1l3.8-4.8c6.2-7.8 7-16.8-6.3-27.3-10.6-8.4-18.7-6.7-25 1.3l-4.4 5.5 31.9 25.3zm-26.6-38.6c10-11.7 22.4-10.1 31.6-2.8 12.8 10.1 13.2 25.1 4.1 36.7l-12.5 15.8-38.5-30.4 15.3-19.3zM206.4 54.2c-2.2-.3-3.9.3-5.2 1.8-1.3 1.6-2.1 3.6-2.6 6.1-.4 2.3-.2 4.3.5 6.1.7 1.9 2.2 3 4.4 3.4 2.1.3 3.9-.3 5.1-1.9 1.2-1.5 2-3.4 2.4-5.5.4-2.4.3-4.6-.3-6.5-.7-1.9-2.1-3.1-4.3-3.5M221 41.1c-1.1-.7-2.3-1.4-3.6-2-1.1-.6-2.5-1.1-4.1-1.3-3.8-.6-6.9.5-9.1 3.3-2.2 2.7-3.6 5.9-4.4 9.6l.1.1c2.7-2.8 5.9-3.8 9.7-3.2 8.8 1.8 12.4 7.4 10.8 16.8-.9 5.1-2.8 9-5.8 11.6-3 2.6-7.1 3.5-12.3 2.6-6.1-1.2-9.9-4.3-11.2-9.1-.8-2.3-1.1-4.7-1.1-7.5 0-2.6.2-5.4.7-8.2 1.1-6.7 3.5-12.6 7.2-17.6 3.6-5.1 9.1-7.1 16.4-6 3.3.6 6.4 1.7 9.3 3.4l-2.6 7.5zM240.8 78.3c1.8.3 3.3-.1 4.4-1.2 1.1-1.1 2-2.4 2.8-4.2.8-1.8 1.4-3.6 1.8-5.6.3-2 .6-3.6.9-5.2.3-1.6.6-3.4.9-5.4.3-2 .3-3.9.2-5.8 0-2-.4-3.7-1.2-5-.7-1.3-2-2.2-3.6-2.5-1.6-.3-3 .2-4.1 1.2-1.1 1-2 2.4-2.8 4.3-.7 1.8-1.2 3.7-1.7 5.6-.4 2-.8 3.7-1.1 5.4-.3 1.5-.5 3.2-.8 5.2-.2 2-.3 3.9-.3 5.8.1 1.9.5 3.5 1.2 4.9.6 1.3 1.8 2.1 3.4 2.5m-1.2 6.9c-3.5-.6-6.1-2-7.9-4-1.8-1.9-3.1-4.2-3.7-6.8-.7-2.7-.9-5.5-.8-8.3.2-2.8.5-5.5.9-8 .5-3 1.3-5.9 2.3-8.8 1-2.8 2.3-5.2 3.9-7.4 1.6-2.1 3.6-3.7 5.9-4.8 2.3-1.1 4.9-1.3 8-.8 3.3.6 5.9 1.9 7.7 3.7 1.9 1.9 3.1 4.2 3.9 6.8.7 2.5 1 5.3 1 8.3-.2 3-.4 5.8-1 8.6-.5 2.8-1.1 5.5-2 8.2-1 2.7-2.2 5.2-3.8 7.4-1.6 2.2-3.6 3.8-5.9 4.9-2.4 1.2-5.2 1.5-8.5 1M298.2 53.2l-17.5-3.1-2 10.2c1.1-.1 2.5 0 4.2.2 1.7.3 3.3.8 5 1.5 1.6.7 3 1.8 4.2 3.2 1.3 1.4 2.2 3.1 2.8 5.3.5 2.1.5 4.7-.1 7.8-.8 4.5-2.9 8-6.4 10.5-3.5 2.6-8.2 3.3-14.1 2.4-3.8-.7-7.2-1.7-10.4-3.2l1.7-8.3c1.1.7 2.3 1.4 3.8 2.2 1.4.8 3.1 1.4 5 1.8 2.6.5 4.9.2 7-.8 2.2-.9 3.6-2.8 4.2-5.8.5-3-.3-5.4-2.1-7-1.8-1.5-4.1-2.5-6.8-3-1.4-.3-2.7-.3-4.1-.4-1.4-.1-2.8 0-4.2.3l4.9-25.3 26.1 4.6-1.2 6.9zM301.7 86.3c2.9 1.9 6.1 3.2 9.8 3.9 1 .2 2.1.2 3.2.2 1.1-.1 2.2-.3 3.3-.6 1.1-.3 2-.9 2.8-1.7.7-.7 1.3-1.7 1.5-2.8.5-2.8-.1-4.9-1.8-6.4-1.6-1.4-3.9-2.3-7-2.8l-4.5-.8 1.3-7.4 4.2.8c3.1.5 5.7.5 7.7-.3 2-.7 3.2-2.1 3.6-4.2.3-1.2.2-2.3 0-3.2-.3-.9-.8-1.6-1.4-2.2-1.3-1.1-3.1-1.9-5.2-2.2-3.7-.6-7.2-.4-10.7.7l.8-7.7c4-.9 8.4-.9 13.2-.1 1.5.2 3.1.6 4.7 1.2 1.7.6 3.2 1.5 4.6 2.7 1.4 1.2 2.5 2.6 3.2 4.3.7 1.7.8 3.9.4 6.5-.6 3.2-1.9 5.4-3.8 6.8-1.9 1.5-4.3 2.4-7 2.9v.1c3 1 5 2.6 6.2 4.9 1.1 2.3 1.4 4.9.9 7.9-.5 2.8-1.5 5-2.8 6.7-1.4 1.6-3.1 2.8-5 3.6-1 .3-1.9.5-2.9.7-1 .2-2 .3-3.1.4-2.1.1-4.2 0-6.1-.3-4.3-.8-8.2-2-11.8-3.7l1.7-7.9z"/></svg>